<svg xmlns="http://www.w3.org/2000/svg" xmlns:xlink="http://www.w3.org/1999/xlink" width="180" height="208" viewBox="0 0 180 208"><defs><linearGradient id="b" x1="100%" x2="16.928%" y1="0%" y2="85.714%"><stop offset="0%" stop-color="#4801FF"/><stop offset="39.963%" stop-color="#7918F2"/><stop offset="100%" stop-color="#AC32E4"/></linearGradient><circle id="a" cx="90" cy="90" r="90"/><linearGradient id="d" x1="100%" x2="0%" y1="100%" y2="100%"><stop offset="0%" stop-color="#FBBC2B"/><stop offset="100%" stop-color="#FE6248"/></linearGradient><linearGradient id="e" x1="100%" x2="0%" y1="100%" y2="100%"><stop offset="0%" stop-color="#FBBC2B"/><stop offset="100%" stop-color="#FE6248"/></linearGradient></defs><g fill="none" fill-rule="evenodd"><g transform="translate(0 28)"><mask id="c" fill="#fff"><use xlink:href="#a"/></mask><use fill="url(#b)" transform="matrix(-1 0 0 1 180 0)" xlink:href="#a"/><g mask="url(#c)"><path fill="#FFE0D7" d="M143.935 144.386l21.83 86.986c1.025 4.083-1.279 8.25-5.542 10.03-5.468 2.287-11.957-.183-13.862-5.272l-31.578-84.474c-2.474-6.608 1.147-13.798 8.342-16.572 8.69-3.348 18.674 1.115 20.81 9.302m-107.17 0l-21.83 86.986c-1.025 4.083 1.279 8.25 5.541 10.03 5.47 2.287 11.958-.183 13.861-5.272l31.58-84.474c2.474-6.608-1.147-13.798-8.343-16.572-8.69-3.348-18.673 1.115-20.81 9.302"/><path fill="url(#d)" d="M167.472 290.99l-10.915-31.319c-5.944-17.055-8.285-33.449-7.27-48.531l3.031-45.031c.194-2.878-2.126-5.658-5.787-6.988l-29.355-10.672c-9.15-3.326-19.965-3.326-29.11 0L58.725 159.12c-3.659 1.33-5.974 4.11-5.776 6.988l3.093 45.031c1.034 15.082-1.283 31.476-7.203 48.531l-10.87 31.318h1.308c-3.122 3.792-5.27 8.417-5.91 13.485l-.21 1.68c-1.796 14.22 8.774 26.3 23.692 26.3h91c14.92 0 25.49-12.08 23.695-26.3l-.21-1.68c-.64-5.068-2.789-9.693-5.911-13.485h2.049z" transform="translate(-12 -27)"/><path fill="#FAC1B1" d="M101.874 106.36v28.861c0 5.142-4.126 9.354-9.167 9.354h-4.713c-5.04 0-9.17-4.212-9.17-9.354v-28.862c0-5.142 4.13-9.354 9.17-9.354h4.713c5.04 0 9.167 4.212 9.167 9.354"/><path fill="#FC8883" d="M101.874 106.36v21.966c-6.065-3.956-16.124-10.433-23.05-14.57v-7.397c0-5.142 4.13-9.354 9.17-9.354h4.713c5.04 0 9.167 4.212 9.167 9.354"/><path fill="#00D6D3" d="M120.994 4.266c0 17.267-13.72 31.265-30.643 31.265-16.925 0-30.645-13.998-30.645-31.265 0-17.267 13.72-31.265 30.645-31.265 16.923 0 30.643 13.998 30.643 31.265"/><path fill="#D0DCEF" d="M60.719 15.488c3.468-13.384 15.422-23.25 29.63-23.25 14.216 0 26.16 9.866 29.629 23.25H60.719z"/><path fill="#00D6D3" d="M94.445 108.74h-8.19c-22.718 0-41.305-18.558-41.305-41.24V43.082c0-22.681 18.587-41.24 41.305-41.24h8.19c22.718 0 41.305 18.559 41.305 41.24V67.5c0 22.683-18.587 41.24-41.305 41.24"/><path fill="#FAC1B1" d="M70.998 76.708c0 5.362-4.588 9.71-10.246 9.71s-10.246-4.348-10.246-9.71c0-5.362 4.588-9.71 10.246-9.71s10.246 4.348 10.246 9.71m59.196 0c0 5.362-4.588 9.71-10.246 9.71-5.659 0-10.246-4.348-10.246-9.71 0-5.362 4.587-9.71 10.246-9.71 5.658 0 10.246 4.348 10.246 9.71"/><path fill="#FAC1B1" d="M59.704 58.498v30.225c0 7.341 2.858 14.38 7.946 19.572l14.056 14.34a13.149 13.149 0 0 0 18.859 0l12.485-12.737c5.088-5.19 7.945-12.231 7.945-19.572V62.774L72.064 37.12 59.704 58.5z"/><path fill="#FFF" d="M78.774 96.766c-.669 0-1.102.794-.777 1.435 2.244 4.412 6.93 7.447 12.352 7.447 5.422 0 10.11-3.035 12.352-7.447.326-.641-.108-1.435-.777-1.435h-23.15z"/><path fill="#67413A" d="M75.317 77.354c-1.658 0-3.017-1.384-3.017-3.078v-2.747c0-1.692 1.359-3.078 3.017-3.078 1.66 0 3.018 1.386 3.018 3.078v2.747c0 1.694-1.359 3.078-3.018 3.078"/><path fill="#B0593C" d="M72.172 64.376l-.463-1.926c2.375-.592 4.796-.386 7.002.596l-.777 1.818a8.797 8.797 0 0 0-5.762-.488"/><path fill="#67413A" d="M105.38 77.354c1.66 0 3.018-1.384 3.018-3.078v-2.747c0-1.692-1.359-3.078-3.018-3.078-1.658 0-3.017 1.386-3.017 3.078v2.747c0 1.694 1.36 3.078 3.017 3.078"/><path fill="#B0593C" d="M108.526 64.376l.463-1.926c-2.374-.592-4.795-.386-7.002.596l.777 1.818a8.797 8.797 0 0 1 5.762-.488"/><path fill="#FC8883" d="M74.896 90.923c0 2.362-1.877 4.276-4.191 4.276-2.315 0-4.192-1.914-4.192-4.276s1.877-4.276 4.192-4.276c2.314 0 4.191 1.914 4.191 4.276m39.289 0c0 2.362-1.876 4.276-4.19 4.276-2.315 0-4.192-1.914-4.192-4.276s1.877-4.276 4.192-4.276c2.314 0 4.19 1.914 4.19 4.276"/><path fill="#ECECEC" d="M74.113 61.234c-6.013 0-10.905 4.991-10.905 11.126S68.1 83.486 74.113 83.486c6.014 0 10.905-4.991 10.905-11.126s-4.89-11.126-10.905-11.126m0 25.22c-7.617 0-13.814-6.322-13.814-14.094 0-7.77 6.197-14.094 13.814-14.094S87.927 64.59 87.927 72.36c0 7.772-6.197 14.093-13.814 14.093m32.474-25.219c-6.015 0-10.905 4.991-10.905 11.126s4.89 11.126 10.905 11.126c6.013 0 10.903-4.991 10.903-11.126s-4.89-11.126-10.903-11.126m0 25.22c-7.617 0-13.814-6.322-13.814-14.094 0-7.77 6.197-14.094 13.814-14.094 7.615 0 13.812 6.323 13.812 14.094 0 7.772-6.197 14.093-13.812 14.093"/></g></g><path fill="#FAC1B1" d="M102.227 134.824v29.179c0 5.198-4.172 9.457-9.268 9.457h-4.765c-5.096 0-9.27-4.259-9.27-9.457v-29.179c0-5.198 4.174-9.457 9.27-9.457h4.765c5.096 0 9.268 4.259 9.268 9.457"/><path fill="#FDC10A" d="M102.227 134.824v22.208c-6.133-3.999-16.302-10.548-23.304-14.73v-7.478c0-5.198 4.175-9.457 9.27-9.457h4.766c5.096 0 9.268 4.259 9.268 9.457"/><path fill="#8F4AF9" d="M121.557 31.609c0 17.457-13.87 31.609-30.98 31.609-17.111 0-30.982-14.152-30.982-31.61C59.595 14.153 73.465 0 90.577 0c17.11 0 30.98 14.152 30.98 31.609"/><path fill="url(#e)" d="M15.942 42.954c3.507-13.531 15.592-23.506 29.955-23.506 14.373 0 26.449 9.975 29.955 23.506h-59.91z" transform="translate(44.677)"/><path fill="#8F4AF9" d="M94.716 137.23h-8.28c-22.967 0-41.759-18.761-41.759-41.693V70.853c0-22.93 18.792-41.694 41.759-41.694h8.28c22.967 0 41.759 18.763 41.759 41.694v24.684c0 22.932-18.792 41.693-41.759 41.693"/><path fill="#FFE0D7" d="M71.011 104.847c0 5.42-4.638 9.816-10.358 9.816-5.72 0-10.359-4.396-10.359-9.816 0-5.42 4.638-9.816 10.359-9.816 5.72 0 10.358 4.395 10.358 9.816m59.846 0c0 5.42-4.638 9.816-10.358 9.816-5.72 0-10.359-4.396-10.359-9.816 0-5.42 4.638-9.816 10.359-9.816 5.72 0 10.358 4.395 10.358 9.816"/><path fill="#FFE0D7" d="M59.594 86.437v30.557c0 7.422 2.889 14.538 8.032 19.787l14.21 14.498a13.293 13.293 0 0 0 19.067 0l12.623-12.878c5.143-5.247 8.032-12.365 8.032-19.786V90.76L72.089 64.823 59.594 86.437z"/><path fill="#FFF" d="M78.873 125.125c-.676 0-1.115.803-.785 1.451 2.268 4.46 7.006 7.53 12.487 7.53 5.482 0 10.22-3.07 12.488-7.53.329-.648-.11-1.45-.786-1.45H78.873z"/><path fill="#8F4AF9" d="M75.378 105.5c-1.677 0-3.05-1.4-3.05-3.112V99.61c0-1.711 1.373-3.112 3.05-3.112 1.677 0 3.051 1.4 3.051 3.112v2.777c0 1.713-1.374 3.112-3.051 3.112m-3.18-13.119l-.468-1.948c2.4-.598 4.849-.39 7.08.603l-.786 1.838a8.893 8.893 0 0 0-5.826-.493m33.573 13.12c1.678 0 3.052-1.4 3.052-3.112V99.61c0-1.711-1.374-3.112-3.052-3.112-1.676 0-3.05 1.4-3.05 3.112v2.777c0 1.713 1.374 3.112 3.05 3.112m3.181-13.119l.468-1.948c-2.4-.598-4.848-.39-7.079.603l.786 1.838a8.893 8.893 0 0 1 5.825-.493"/><path fill="#F29583" d="M74.952 119.218c0 2.388-1.897 4.323-4.237 4.323s-4.238-1.935-4.238-4.323c0-2.388 1.898-4.323 4.238-4.323 2.34 0 4.237 1.935 4.237 4.323m39.721 0c0 2.388-1.897 4.323-4.237 4.323s-4.237-1.935-4.237-4.323c0-2.388 1.897-4.323 4.237-4.323s4.237 1.935 4.237 4.323" opacity=".5"/><path fill="#8F4AF9" d="M74.16 89.203c-6.078 0-11.024 5.046-11.024 11.248 0 6.202 4.946 11.248 11.025 11.248 6.08 0 11.025-5.046 11.025-11.248 0-6.202-4.945-11.248-11.025-11.248m0 25.496c-7.7 0-13.966-6.39-13.966-14.248 0-7.856 6.265-14.248 13.966-14.248 7.7 0 13.965 6.392 13.965 14.248 0 7.858-6.265 14.248-13.965 14.248m32.83-25.496c-6.08 0-11.025 5.046-11.025 11.248 0 6.202 4.945 11.248 11.025 11.248 6.079 0 11.024-5.046 11.024-11.248 0-6.202-4.945-11.248-11.024-11.248m-13.966 11.248c0-7.856 6.265-14.248 13.966-14.248 7.7 0 13.964 6.392 13.964 14.248 0 7.858-6.265 14.248-13.964 14.248-7.7 0-13.966-6.39-13.966-14.248z"/></g></svg>