<svg xmlns="http://www.w3.org/2000/svg" xmlns:xlink="http://www.w3.org/1999/xlink" width="218" height="250" viewBox="0 0 218 250"><defs><linearGradient id="b" x1="99.638%" x2="17.167%" y1="0%" y2="85.714%"><stop offset="0%" stop-color="#4801FF"/><stop offset="39.963%" stop-color="#7918F2"/><stop offset="100%" stop-color="#AC32E4"/></linearGradient><ellipse id="a" cx="108.5" cy="108.895" rx="108.5" ry="108.895"/><linearGradient id="d" x1="100%" x2="0%" y1="100%" y2="100%"><stop offset="0%" stop-color="#FBBC2B"/><stop offset="100%" stop-color="#FE6248"/></linearGradient><path id="e" d="M.352.305h101.419v48.6H.352z"/><linearGradient id="g" x1="100%" x2="0%" y1="100%" y2="100%"><stop offset="0%" stop-color="#FBBC2B"/><stop offset="100%" stop-color="#FE6248"/></linearGradient><path id="h" d="M.353.305h101.652v48.623H.353z"/></defs><g fill="none" fill-rule="evenodd"><g transform="translate(.173 32.11)"><mask id="c" fill="#fff"><use xlink:href="#a"/></mask><use fill="url(#b)" transform="matrix(-1 0 0 1 217 0)" xlink:href="#a"/><g mask="url(#c)"><path fill="#FFE0D7" d="M176.794 399.007l-136.252-.466-31.01-231.105c-.21-1.166.348-2.332 1.368-2.939l45.635-26.657 4.061-2.38a113.468 113.468 0 0 1 6.36-3.45c.697-.327 1.37-.654 2.067-.98 12.44-5.79 25.41-8.625 38.368-8.579.048 0 .094-.005.14-.005h1.068c.743 0 1.486.024 2.205.047.58 0 1.137.023 1.693.071 12.211.746 24.326 4.104 35.956 10.027.254.141.51.257.766.398a57.5 57.5 0 0 1 2.6 1.398c.232.118.44.234.65.35l9.26 5.225 43.454 24.583c.998.582 1.578 1.702 1.414 2.867l-29.803 231.595z"/><path fill="url(#d)" d="M145.084 337.566l28.12-10.047-24.102-108.445 12.05-17.49-6.025-24.488-11.75 1.949-11.75-1.949-6.025 24.487 12.05 17.491-24.101 108.445 28.12 10.047v1.219l1.706-.609 1.707.609z" transform="translate(-35.32 -32.874)"/><path fill="#FFF" d="M148.453 132.592l-15.435 46.412-24.953-23.976-24.952 23.976-15.622-46.995c.697-.325 1.369-.654 2.065-.979a92.172 92.172 0 0 1 18.779-6.414 87.779 87.779 0 0 1 19.197-2.169h1.067c.743 0 1.484.023 2.205.047.58 0 1.137.023 1.693.07 12.211.745 24.326 4.105 35.956 10.028"/><path fill="#FAC1B1" d="M138.149 137.019l-3.273 3.305A36.236 36.236 0 0 1 107.308 151l-4.572-.232a36.289 36.289 0 0 1-25.068-11.983 9.06 9.06 0 0 1-2.319-6.082c0-1.056.18-2.13.56-3.172.92-2.546 2.005-8.099 2.975-15.47 1.284-9.883 2.354-23.072 2.517-36.673.066-5.124 4.212-9.273 9.31-9.323l10.281-.1 23.685-.247c5.379-.066 9.69 4.397 9.508 9.8-.444 12.496-.116 34.197 5.938 49.716 1.317 3.371.576 7.205-1.974 9.784"/><path fill="#F29583" d="M121.816 105.187l-43.87 24.228.938-15.353c1.284-9.883 2.354-23.073 2.517-36.673.066-5.124 4.212-9.272 9.31-9.323l10.281-.098 20.824 37.219z"/><path fill="#8F4AF9" d="M131.822 86.154l-46.449.768c-11.359.189-21.76-8.154-23.107-19.102L55.65 14.042c-1.873-15.229 8.544-28.31 23.144-28.068l59.379.983c13.905.229 23.669 13.18 21.923 27.848l-6.199 52.08c-1.269 10.658-11.143 19.088-22.076 19.269"/><path fill="#FAC1B1" d="M149.064 18.211v62.344c0 .966-.076 2.874-.266 5.162-.455 5.886-1.482 14.402-3.038 16.33l-23.466 25.388a15.197 15.197 0 0 1-11.884 5.724h-4.271a15.23 15.23 0 0 1-11.772-5.543l-24.243-25.529c-1.88-2.29-3.038-13.657-3.362-19.242a46.308 46.308 0 0 1-.076-2.409V18.573a15.153 15.153 0 0 1 9.74-14.14l24.567-9.46a15.272 15.272 0 0 1 3.892-.944c2.127-.22 4.31 0 6.38.702l27.395 9.1a15.146 15.146 0 0 1 10.404 14.38"/><path fill="#F29583" d="M86.352 69.997c0 3.512-2.975 6.359-6.647 6.359s-6.648-2.847-6.648-6.36c0-3.511 2.976-6.357 6.648-6.357 3.672 0 6.647 2.846 6.647 6.358m56.323 0c0 3.512-2.977 6.359-6.647 6.359-3.672 0-6.648-2.847-6.648-6.36 0-3.511 2.976-6.357 6.648-6.357 3.67 0 6.647 2.846 6.647 6.358"/><g transform="translate(63.699 -32.783)"><mask id="f" fill="#fff"><use xlink:href="#e"/></mask><path fill="#8F4AF9" d="M101.637 9.657c-.218-3.066-.578-6.197-.995-9.352L18.837 7.422a36.888 36.888 0 0 0-10.97 3.386C2.452 13.459-.457 19.62.55 25.651c5.668 3.09 12.276 2.573 18.612 2.902.077.003.153.011.231.015-.479-.027 5.558 7.075 6.182 7.58 27.064 21.838 79.18 17.276 76.062-26.49" mask="url(#f)"/></g><path fill="#FAC1B1" d="M67.719 78.752h-5.394c-6.453 0-11.684-7.314-11.684-16.336v-5.027c0-7.634 4.426-13.822 9.887-13.822h7.19v35.185zm80.295 0h5.393c6.453 0 11.684-7.314 11.684-16.336v-5.027c0-7.634-4.426-13.822-9.887-13.822h-7.19v35.185z"/><path fill="#B27E78" d="M150.003 83.2c0 .915-.075 2.727-.283 4.905-1.596 18.043-16.626 28.06-28.878 39.618-2.998 3.262-7.441 5.208-12.227 5.436 0 0-1.48 0-1.48-.038-4.785-.19-9.226-2.136-12.226-5.398-13.084-12.337-27.217-20.83-28.877-39.622-.018-.114-.018-.228-.038-.343-.19-2.021-.266-3.701-.266-4.558V46.878c0-.821 1.197-.897 1.31-.076l3.588 27.64 1.083 8.336c.171 1.355 1.652 2.138 2.866 1.51l8.486-4.426a16.952 16.952 0 0 1 12.683-1.223l7.33 4.045c3.13.935 6.472.935 9.604 0l7.33-4.045a16.952 16.952 0 0 1 12.682 1.223l8.486 4.425c1.215.629 2.695-.154 2.867-1.509l.759-5.817 3.91-30.16c.115-.82 1.291-.744 1.291.077V83.2z"/><path fill="#B27E78" d="M108.109 132.161c.279 0 .507.004.507 0 4.498-.215 8.707-2.08 11.497-5.117 2.106-1.988 4.24-3.883 6.374-5.78 10.3-9.154 20.95-18.617 22.243-33.248.208-2.154.28-3.94.28-4.815V52.23l-3.98 30.678a2.972 2.972 0 0 1-1.563 2.248 2.94 2.94 0 0 1-2.748.015l-8.486-4.426a15.872 15.872 0 0 0-11.943-1.15l-7.131 3.963c-3.53 1.073-7.047 1.076-10.37.08l-7.523-4.125c-3.792-1.107-8.034-.704-11.745 1.232l-8.488 4.426a2.935 2.935 0 0 1-2.748-.015 2.97 2.97 0 0 1-1.56-2.253l-4.003-30.837V83.2c0 .78.07 2.422.26 4.465l.042.347c1.317 14.95 10.59 23.072 21.326 32.476 2.373 2.081 4.828 4.234 7.24 6.505 2.853 3.098 7.058 4.95 11.585 5.13l.934.037zm.384 1.997c-.58 0-1.041-.005-1.396-.053v.015c-5.051-.2-9.76-2.285-12.917-5.72-2.333-2.198-4.776-4.337-7.138-6.405-10.598-9.285-20.607-18.057-21.997-33.805l.95-.43-.99.092c-.197-2.108-.27-3.786-.27-4.651V46.877c0-.892.644-1.587 1.532-1.648a1.649 1.649 0 0 1 1.756 1.434l4.672 35.987a.961.961 0 0 0 .516.743c.29.153.619.156.908.007l8.484-4.426c4.174-2.176 8.94-2.633 13.424-1.292l7.524 4.124c2.762.808 5.885.801 8.847-.08l7.131-3.963c4.695-1.42 9.452-.961 13.619 1.21l8.484 4.427a.97.97 0 0 0 .91-.007.973.973 0 0 0 .516-.738l4.669-35.983c.125-.888.793-1.511 1.749-1.443a1.63 1.63 0 0 1 1.52 1.648v36.324c0 .918-.074 2.78-.289 5-1.361 15.416-12.313 25.146-22.903 34.558-2.12 1.884-4.24 3.766-6.281 5.691-3.093 3.366-7.798 5.464-12.861 5.708h-.169z"/><path fill="#75463E" d="M90.635 59.521c-2.277 0-4.142-1.872-4.142-4.162v-3.894c0-2.288 1.865-4.162 4.142-4.162 2.278 0 4.143 1.874 4.143 4.162v3.894c0 2.29-1.865 4.162-4.143 4.162M81.89 39.025l1.428 5.02s7.854-5.02 12.137-1.434l.714-7.173s-10.709-2.87-14.278 3.587m43.206 20.497c2.278 0 4.142-1.872 4.142-4.162v-3.894c0-2.288-1.864-4.162-4.142-4.162-2.277 0-4.142 1.874-4.142 4.162v3.894c0 2.29 1.865 4.162 4.142 4.162m8.745-20.497l-1.428 5.02s-7.854-5.02-12.136-1.434l-.715-7.173s10.71-2.869 14.279 3.587"/><path fill="#FFF" d="M93.997 89.946c-.813 0-1.34 1.411-.944 2.552 2.725 7.844 8.417 13.243 15.003 13.243 6.585 0 12.279-5.4 15.003-13.243.397-1.14-.13-2.552-.944-2.552H93.997z"/><path fill="#8F4AF9" d="M155.365 202.892l21.778 60.225.378 1.058 18.916 52.292c4.408 12.18 17.403 18.874 29.821 15.354l1.958-.563c17.287-4.908 27.123-23.186 21.744-40.409l-14.21-45.465-.083-.265-20.33-65.084a30.82 30.82 0 0 0-17.354-19.22 30.55 30.55 0 0 0-19.41-1.59c-19.113 4.745-29.936 25.09-23.208 43.667m-94.618-.365l-21.778 60.225-.378 1.058-18.916 52.292c-4.408 12.18-17.403 18.874-29.821 15.353l-1.958-.562c-17.287-4.908-27.123-23.187-21.744-40.409l14.21-45.465.083-.266L.775 179.67a30.81 30.81 0 0 1 17.354-19.22 30.55 30.55 0 0 1 19.41-1.59c19.111 4.745 29.936 25.09 23.208 43.667"/><path fill="url(#g)" d="M243.055 200.45l-29.918 232.598h-1.024l-137.272-.468-.14-1.001-31.01-231.106c-.279-1.585.487-3.242 1.928-4.104l25.834-15.09 4.34-2.542 16.642-9.702.489 1.235 52.457 129.884.814 2.03 1.577-4.106v-.023l48.675-126.9 14.275 8.071 4.549 2.589 25.787 14.577a3.995 3.995 0 0 1 1.997 4.058" transform="translate(-35.32 -32.874)"/></g></g><path fill="#FFE0D7" d="M137.883 169.883l-3.28 3.306a36.356 36.356 0 0 1-27.633 10.683l-4.581-.232a36.399 36.399 0 0 1-25.127-11.989 9.055 9.055 0 0 1-2.324-6.085c0-1.057.18-2.132.561-3.174.923-2.546 2.01-8.102 2.982-15.477 1.287-9.887 2.36-23.083 2.523-36.69.066-5.127 4.221-9.278 9.33-9.328l10.306-.1 23.74-.247c5.391-.066 9.712 4.399 9.53 9.806-.445 12.5-.116 34.212 5.951 49.739 1.32 3.373.577 7.208-1.978 9.788"/><path fill="#F29583" d="M121.512 138.036l-43.97 24.24.94-15.36c1.286-9.889 2.358-23.085 2.522-36.692.066-5.126 4.221-9.275 9.33-9.327l10.306-.098 20.872 37.237z" opacity=".6"/><path fill="#8F4AF9" d="M131.54 118.994l-46.555.768c-11.385.189-21.81-8.158-23.16-19.11l-6.63-53.804c-1.878-15.237 8.563-28.325 23.197-28.083l59.516.984c13.937.23 23.723 13.186 21.973 27.862l-6.213 52.105c-1.272 10.662-11.169 19.097-22.127 19.278"/><path fill="#FFE0D7" d="M148.823 51.018v62.375c0 .965-.076 2.875-.266 5.164-.457 5.888-1.486 14.409-3.046 16.338l-23.52 25.4a15.243 15.243 0 0 1-11.911 5.727h-4.281c-4.567 0-8.906-2.03-11.799-5.546l-24.299-25.541c-1.884-2.291-3.045-13.664-3.37-19.251a46.246 46.246 0 0 1-.076-2.41V51.38c0-6.27 3.883-11.897 9.763-14.147l24.623-9.464a15.33 15.33 0 0 1 3.9-.944c2.133-.22 4.321 0 6.396.702l27.458 9.104c6.241 2.069 10.428 7.856 10.428 14.387"/><path fill="#F29583" d="M85.967 102.829c0 3.514-2.983 6.362-6.663 6.362s-6.663-2.848-6.663-6.362c0-3.514 2.983-6.36 6.663-6.36s6.663 2.846 6.663 6.36m56.453 0c0 3.514-2.984 6.362-6.663 6.362-3.68 0-6.663-2.848-6.663-6.362 0-3.514 2.982-6.36 6.663-6.36 3.679 0 6.663 2.846 6.663 6.36" opacity=".6"/><g transform="translate(63.261)"><mask id="i" fill="#fff"><use xlink:href="#h"/></mask><path fill="#8F4AF9" d="M101.871 9.662c-.218-3.068-.579-6.2-.997-9.357L18.88 7.425a37.023 37.023 0 0 0-10.995 3.388C2.458 13.466-.458 19.63.551 25.663c5.682 3.093 12.305 2.575 18.655 2.903.078.004.154.012.232.015-.48-.026 5.57 7.08 6.196 7.584 27.126 21.85 79.363 17.285 76.237-26.503" mask="url(#i)"/></g><path fill="#FFE0D7" d="M67.29 111.589h-5.406c-6.467 0-11.71-7.318-11.71-16.345v-5.028c0-7.639 4.435-13.83 9.909-13.83h7.207v35.203zm80.48 0h5.406c6.468 0 11.711-7.318 11.711-16.345v-5.028c0-7.639-4.436-13.83-9.91-13.83h-7.207v35.203z"/><path fill="#B27E78" d="M149.765 79.699v36.34c0 .915-.077 2.728-.285 4.906-1.6 18.052-16.664 28.074-28.944 39.638-3.005 3.263-7.458 5.21-12.255 5.438 0 0-1.484 0-1.484-.038-4.795-.19-9.247-2.137-12.254-5.4-13.114-12.343-27.28-20.84-28.944-39.64-.018-.115-.018-.23-.038-.344-.19-2.023-.266-3.703-.266-4.56v-36.34c0-.821 1.2-.898 1.313-.077l3.596 27.655 1.085 8.34c.173 1.355 1.656 2.138 2.874 1.51l8.505-4.429a17.019 17.019 0 0 1 12.712-1.222l7.346 4.046a16.86 16.86 0 0 0 9.627 0l7.346-4.046a17.019 17.019 0 0 1 12.712 1.222l8.506 4.428c1.217.63 2.7-.154 2.873-1.51l.76-5.82 3.921-30.174"/><path fill="#B27E78" d="M107.773 165.023c.28 0 .508.004.508 0 4.51-.215 8.727-2.082 11.525-5.12 2.11-1.989 4.249-3.885 6.388-5.783 10.323-9.158 20.999-18.626 22.294-33.263.208-2.155.281-3.942.281-4.818V85.055l-3.99 30.692a2.973 2.973 0 0 1-1.566 2.25 2.952 2.952 0 0 1-2.754.015l-8.506-4.428a15.934 15.934 0 0 0-11.97-1.152l-7.148 3.965c-3.538 1.074-7.063 1.077-10.393.08l-7.541-4.126c-3.801-1.108-8.052-.705-11.772 1.233l-8.508 4.428a2.947 2.947 0 0 1-2.754-.015 2.971 2.971 0 0 1-1.565-2.255l-4.01-30.851v31.148c0 .781.069 2.424.26 4.468l.042.347c1.32 14.957 10.614 23.083 21.375 32.492 2.378 2.082 4.84 4.235 7.256 6.508 2.86 3.099 7.075 4.952 11.612 5.131l.936.038zm.386 1.998c-.582 0-1.044-.005-1.4-.053v.015c-5.063-.201-9.782-2.286-12.946-5.722-2.34-2.2-4.787-4.34-7.155-6.41-10.622-9.288-20.655-18.064-22.047-33.82l.95-.431-.99.093c-.199-2.109-.271-3.788-.271-4.654V79.7c0-.893.645-1.589 1.535-1.65a1.652 1.652 0 0 1 1.76 1.435l4.682 36.004a.962.962 0 0 0 .518.743.97.97 0 0 0 .91.007l8.504-4.428c4.183-2.176 8.96-2.634 13.455-1.292l7.54 4.126c2.77.808 5.9.801 8.868-.08l7.148-3.965c4.706-1.42 9.473-.962 13.65 1.211l8.504 4.428c.286.15.618.146.913-.007a.973.973 0 0 0 .516-.738l4.68-36c.125-.888.795-1.512 1.753-1.444.868.061 1.523.77 1.523 1.65v36.34c0 .92-.074 2.782-.29 5.002-1.364 15.424-12.34 25.16-22.955 34.576-2.126 1.884-4.25 3.767-6.296 5.693-3.1 3.368-7.816 5.467-12.89 5.71h-.17z"/><path fill="#8F4AF9" d="M90.26 92.348c-2.283 0-4.152-1.873-4.152-4.164v-3.896c0-2.289 1.869-4.164 4.152-4.164 2.282 0 4.152 1.875 4.152 4.164v3.896c0 2.291-1.87 4.164-4.152 4.164m-8.765-20.506l1.43 5.023s7.872-5.023 12.165-1.435l.716-7.177s-10.734-2.871-14.311 3.589M124.8 92.349c2.283 0 4.153-1.873 4.153-4.164v-3.896c0-2.29-1.87-4.164-4.152-4.164-2.283 0-4.152 1.875-4.152 4.164v3.896c0 2.29 1.87 4.164 4.152 4.164m8.765-20.507l-1.431 5.023s-7.872-5.023-12.165-1.435l-.716-7.177s10.734-2.87 14.312 3.589"/><path fill="#FFF" d="M93.63 122.788c-.816 0-1.344 1.412-.947 2.553 2.731 7.847 8.436 13.25 15.038 13.25 6.6 0 12.306-5.403 15.037-13.25.397-1.141-.13-2.553-.946-2.553H93.63z"/></g></svg>