<svg xmlns="http://www.w3.org/2000/svg" xmlns:xlink="http://www.w3.org/1999/xlink" width="180" height="207" viewBox="0 0 180 207"><defs><linearGradient id="b" x1="100%" x2="0%" y1="0%" y2="100%"><stop offset="0%" stop-color="#4801FF"/><stop offset="52.127%" stop-color="#7918F2"/><stop offset="100%" stop-color="#AC32E4"/></linearGradient><circle id="a" cx="90" cy="90" r="90"/><linearGradient id="d" x1="100%" x2="0%" y1="100%" y2="100%"><stop offset="0%" stop-color="#FBBC2B"/><stop offset="100%" stop-color="#FE6248"/></linearGradient></defs><g fill="none" fill-rule="evenodd"><g transform="translate(0 27)"><mask id="c" fill="#fff"><use xlink:href="#a"/></mask><use fill="url(#b)" transform="matrix(-1 0 0 1 180 0)" xlink:href="#a"/><g mask="url(#c)"><path fill="#FAC1B1" d="M123.785 138.5l6.643 40.614.114.713 5.77 35.266c1.345 8.214 6.222 13.644 11.194 12.457l.784-.191c6.92-1.657 11.343-12.56 9.775-24.099l-4.14-30.468-.024-.177L147.976 129c-.813-6.013-3.156-10.967-6.191-13.863-2.246-2.152-4.87-3.185-7.55-2.702-7.63 1.392-12.502 13.537-10.45 26.065"/><path fill="#FFE0D7" d="M125.101 120.993c2.04-5.096 5.351-8.41 9.083-9.09 2.674-.48 5.355.48 7.75 2.773 3.232 3.085 5.55 8.273 6.357 14.234l5.996 44.145-24.09 6.673-6.723-41.113c-1.002-6.113-.41-12.536 1.627-17.622"/><path fill="#FFE0D7" d="M126.144 121.413c-1.96 4.903-2.53 11.107-1.56 17.02l6.522 39.872 21.933-6.073-5.862-43.169c-.775-5.713-2.968-10.659-6.02-13.568-2.125-2.038-4.479-2.9-6.775-2.483-3.34.61-6.345 3.675-8.238 8.401zm3.146 59.736l-6.926-42.35c-1.036-6.31-.418-12.952 1.693-18.228 2.187-5.46 5.802-9.025 9.924-9.78 3.051-.546 6.065.515 8.731 3.07 3.41 3.255 5.854 8.686 6.694 14.898l6.13 45.121-26.246 7.269z"/><path fill="#FAC1B1" d="M54.84 138.5l-6.64 40.614-.117.713-5.769 35.266c-1.345 8.214-6.223 13.644-11.195 12.457l-.784-.191c-6.92-1.657-11.342-12.56-9.775-24.099l4.141-30.468.025-.177L30.65 129c.814-6.013 3.157-10.967 6.192-13.863 2.245-2.152 4.87-3.185 7.549-2.702 7.63 1.392 12.504 13.537 10.45 26.065"/><path fill="#FFE0D7" d="M44.441 111.903c-2.674-.48-5.354.48-7.749 2.773-3.233 3.085-5.55 8.273-6.358 14.234l-5.996 44.145 24.09 6.673 6.725-41.113c1-6.113.407-12.536-1.63-17.622-2.04-5.096-5.35-8.41-9.082-9.09z"/><path fill="#FFE0D7" d="M25.587 172.232l21.934 6.073 6.521-39.873c.97-5.911.4-12.113-1.562-17.019-1.893-4.725-4.899-7.79-8.242-8.402-2.308-.42-4.646.445-6.768 2.48-3.053 2.914-5.247 7.858-6.02 13.571l-5.863 43.17zm23.748 8.918l-26.245-7.27 6.132-45.122c.839-6.213 3.281-11.642 6.695-14.901 2.662-2.552 5.689-3.61 8.722-3.068 4.127.756 7.742 4.32 9.93 9.78 2.111 5.279 2.73 11.924 1.695 18.228l-6.928 42.352z"/><path fill="url(#d)" d="M117.771 256.154h-89.04l-6.934-117.252c-.023-.524.332-1.044.89-1.308l26.207-12.425a59.996 59.996 0 0 1 4.248-1.813c12.849-4.875 26.518-4.622 39.312.795.54.23 1.093.47 1.637.722l27.709 12.739c.554.254.914.76.912 1.277l-4.94 117.265z" transform="translate(17.059 -27)"/><path fill="#FAC1B1" d="M103.43 103.273l-1.442 2.457c-3.202 5.44-7.613 8.325-12.14 7.934l-2.014-.173c-4.231-.38-8.2-3.574-11.04-8.904-.675-1.264-1.022-2.873-1.022-4.52 0-.784.08-1.583.247-2.357.405-1.89.883-6.018 1.311-11.495.564-7.343 1.036-17.144 1.108-27.25.029-3.808 1.855-6.89 4.1-6.927l4.528-.075 10.43-.184c2.37-.048 4.269 3.267 4.189 7.284-.196 9.284-.051 25.408 2.615 36.94.579 2.506.252 5.355-.87 7.27"/><path fill="#F29583" d="M96.236 79.62l-19.32 18.005.413-11.41c.566-7.344 1.036-17.143 1.109-27.252.029-3.805 1.854-6.888 4.1-6.926l4.527-.073 9.171 27.657z"/><path fill="#8F4AF9" d="M108.038 65.558l-36.307.6c-8.88.146-17.012-6.362-18.065-14.904l-5.17-41.96c-1.465-11.88 6.679-22.088 18.092-21.899l46.417.766c10.87.181 18.501 10.284 17.136 21.73l-4.845 40.632c-.991 8.315-8.71 14.893-17.258 15.035"/><path fill="#FAC1B1" d="M121.51 12.548V61.19c0 .752-.059-1.709-.208.078-.357 4.59-1.157 11.237-2.375 12.74l-18.343 15.86a11.895 11.895 0 0 1-9.29 4.467h-3.34a11.907 11.907 0 0 1-9.2-4.326L59.801 74.04c-1.468-1.787-2.373-6.707-2.627-11.065a35.789 35.789 0 0 1-.059-1.88V12.83c0-4.89 3.028-9.277 7.614-11.033l19.204-7.38c.98-.376 2.003-.627 3.042-.737 1.663-.173 3.369 0 4.986.548l21.416 7.1c4.867 1.613 8.133 6.126 8.133 11.22"/><path fill="#F29583" d="M72.495 52.952c0 2.74-2.326 4.961-5.196 4.961-2.87 0-5.197-2.222-5.197-4.96 0-2.742 2.327-4.962 5.197-4.962s5.196 2.22 5.196 4.961m44.028 0c0 2.74-2.326 4.961-5.196 4.961-2.87 0-5.197-2.222-5.197-4.96 0-2.742 2.327-4.962 5.197-4.962s5.196 2.22 5.196 4.961"/><path fill="#8F4AF9" d="M134.108-19.704c-.171-2.391-.452-4.834-.777-7.296l-63.95 5.55a28.905 28.905 0 0 0-8.574 2.643c-4.232 2.07-6.508 6.877-5.72 11.581 4.43 2.412 9.596 2.009 14.55 2.264.06.003.12.01.18.013-.374-.02 4.344 5.52 4.833 5.914 21.156 17.039 61.895 13.48 59.458-20.67"/><path fill="#FAC1B1" d="M57.929 59.783h-4.216c-5.045 0-9.133-5.706-9.133-12.745v-3.923c0-5.957 3.46-10.784 7.728-10.784h5.62v27.452zm62.767 0h4.216c5.045 0 9.134-5.706 9.134-12.745v-3.923c0-5.957-3.46-10.784-7.728-10.784h-5.622v27.452z"/><path fill="#75463E" d="M73.875 44.778a3.252 3.252 0 0 1-3.238-3.247v-3.037a3.252 3.252 0 0 1 3.238-3.248 3.253 3.253 0 0 1 3.238 3.248v3.037a3.252 3.252 0 0 1-3.238 3.247m-6.836-15.991l1.116 3.917s6.14-3.917 9.487-1.119l.558-5.596s-8.37-2.24-11.161 2.798m37.712 15.992a3.253 3.253 0 0 0 3.238-3.248v-3.037a3.252 3.252 0 0 0-3.238-3.247 3.252 3.252 0 0 0-3.238 3.247v3.037a3.253 3.253 0 0 0 3.238 3.248m6.836-15.992l-1.116 3.918s-6.14-3.918-9.487-1.12l-.558-5.596s8.37-2.24 11.16 2.798"/><path fill="#FFF" d="M78.322 62.593c-.634 0-1.047 1.102-.736 1.992 2.128 6.12 6.578 10.331 11.726 10.331 5.149 0 9.6-4.212 11.728-10.331.31-.89-.101-1.992-.738-1.992h-21.98z"/></g></g><path fill="#FFDAD0" d="M103.9 130.561l-1.452 2.46c-3.223 5.447-7.663 8.336-12.22 7.944l-2.027-.173c-4.26-.38-8.255-3.579-11.114-8.915-.678-1.266-1.028-2.877-1.028-4.526 0-.786.08-1.586.248-2.361.408-1.893.89-6.025 1.32-11.51.569-7.352 1.043-17.165 1.116-27.286.029-3.812 1.867-6.898 4.127-6.935l4.558-.075 10.5-.184c2.384-.048 4.296 3.27 4.215 7.293-.197 9.296-.051 25.441 2.633 36.989.582 2.508.254 5.361-.876 7.279"/><path fill="#F29583" d="M96.059 106.862l-19 18.138.406-11.494c.556-7.399 1.019-17.27 1.09-27.454.029-3.834 1.823-6.94 4.033-6.978L87.039 79l9.02 27.862z"/><path fill="#8F4AF9" d="M107.791 92.396l-36.32.602c-8.882.147-17.017-6.38-18.07-14.948L48.23 35.966c-1.466-11.916 6.68-22.153 18.097-21.963l46.432.768c10.873.182 18.507 10.315 17.142 21.793l-4.847 40.753c-.992 8.34-8.713 14.937-17.263 15.079"/><path fill="#FFE0D7" d="M121.059 39.985v48.778c0 .754-.059-1.713-.207.079-.354 4.603-1.15 11.268-2.36 12.776l-18.23 15.904A11.783 11.783 0 0 1 91.027 122h-3.319c-3.54 0-6.903-1.587-9.144-4.338L59.728 101.65c-1.46-1.792-2.359-6.726-2.61-11.095a35.73 35.73 0 0 1-.06-1.886v-48.4c0-4.904 3.01-9.303 7.567-11.064l19.087-7.401a11.883 11.883 0 0 1 3.024-.738c1.652-.174 3.348 0 4.955.549l21.285 7.119a11.845 11.845 0 0 1 8.083 11.252"/><path fill="#F29583" d="M72.059 80a5 5 0 1 1-10.001 0 5 5 0 0 1 10 0m44.001 0a5 5 0 1 1-10.001 0 5 5 0 0 1 10 0" opacity=".6"/><path fill="#8F4AF9" d="M133.955 7.312c-.171-2.396-.45-4.845-.775-7.312L69.457 5.563a28.684 28.684 0 0 0-8.544 2.648c-4.218 2.074-6.485 6.891-5.7 11.606 4.415 2.417 9.562 2.013 14.498 2.269.061.002.12.009.18.013-.373-.021 4.329 5.533 4.816 5.926 21.08 17.076 61.676 13.509 59.248-20.713"/><path fill="#FFE0D7" d="M58.059 87h-4.105c-4.913 0-8.895-5.613-8.895-12.536v-3.857c0-5.859 3.37-10.607 7.526-10.607h5.474v27zm62 0h4.42c5.292 0 9.58-5.613 9.58-12.536v-3.857c0-5.859-3.63-10.607-8.105-10.607h-5.895v27z"/><path fill="#8F4AF9" d="M74.059 72c-1.65 0-3-1.532-3-3.407v-3.186c0-1.875 1.35-3.407 3-3.407s3 1.532 3 3.407v3.186c0 1.875-1.35 3.407-3 3.407m-7-15.802l1.1 3.802s6.05-3.802 9.35-1.086l.55-5.433s-8.25-2.173-11 2.717m38 15.802c1.65 0 3-1.534 3-3.407v-3.186c0-1.875-1.35-3.407-3-3.407s-3 1.532-3 3.407v3.186c0 1.873 1.35 3.407 3 3.407m6-15.803l-1.1 3.803s-6.05-3.803-9.35-1.087l-.55-5.432s8.25-2.173 11 2.716"/><path fill="#FFF" d="M77.913 90c-.644 0-1.062 1.073-.747 1.94C79.324 97.897 83.838 102 89.058 102c5.221 0 9.735-4.102 11.894-10.06.314-.867-.103-1.94-.748-1.94h-22.29z"/></g></svg>